<svg width="145" height="46" viewBox="0 0 145 46" fill="none" xmlns="http://www.w3.org/2000/svg">
<path d="M26.4874 7.96362H31.7658V37.8855H26.2667V25.1673L22.3051 37.8855H18.5223L14.5606 25.1087V37.8855H9.06152V7.96362H14.3399L20.4175 28.7143L26.4874 7.96362Z" fill="black"/>
<path d="M34.7568 26.6681V21.282H40.6974V26.6681H34.7568Z" fill="#E9A126"/>
<path d="M73.3262 45.963V40.5769H79.2667V45.963H73.3262Z" fill="#92FF3C"/>
<path d="M138.289 5.38608V0H144.23V5.38608H138.289Z" fill="#FF00CF"/>
<path d="M0 19.65V14.2639H5.94057V19.65H0Z" fill="#49AFFF"/>
<path d="M0 37.8855V22.3311H5.94057V37.8855H0Z" fill="black"/>
<path d="M43.7002 37.8855V7.96362H51.8404C54.3331 7.96362 56.3158 8.6399 57.781 9.98901C59.2461 11.3381 59.9806 13.1254 59.9806 15.344V19.3327C59.9806 21.541 59.2461 23.3214 57.781 24.6774C56.3158 26.0334 54.3331 26.7131 51.8404 26.7131H49.6408V37.8855H43.7002ZM49.6408 21.3305H51.8404C52.5444 21.3305 53.0887 21.1476 53.4692 20.7819C53.8498 20.4161 54.0401 19.9331 54.0401 19.3361V15.3475C54.0401 14.7506 53.8498 14.2675 53.4692 13.9018C53.0887 13.536 52.5444 13.3532 51.8404 13.3532H49.6408V21.3305Z" fill="black"/>
<path d="M76.8774 25.5262C78.7726 26.5578 79.1418 28.352 79.1418 29.5114V37.889H73.2012V29.5114C73.2012 28.9145 73.0109 28.4314 72.6304 28.0657C72.2498 27.6999 71.7056 27.517 71.0015 27.517H68.8019V37.889H62.8613V7.96362H71.0015C73.4942 7.96362 75.477 8.6399 76.9421 9.98901C78.4073 11.3381 79.1418 13.1254 79.1418 15.344V20.1332C79.1418 21.5444 78.8335 22.7866 78.217 23.8631C77.6005 24.9396 77.2732 25.2674 76.8774 25.5262ZM68.7981 22.1275H70.9977C71.7018 22.1275 72.246 21.9447 72.6265 21.5789C73.0071 21.2132 73.1974 20.7301 73.1974 20.1332V15.344C73.1974 14.7471 73.0071 14.2641 72.6265 13.8983C72.246 13.5326 71.7018 13.3497 70.9977 13.3497H68.7981V22.1275Z" fill="black"/>
<path d="M96.3542 9.35058C94.8891 8.00147 92.9063 7.3252 90.4137 7.3252C87.921 7.3252 85.9573 8.00147 84.4845 9.35058C83.0117 10.6997 82.2734 12.487 82.2734 14.7056V31.1433C82.2734 33.3516 83.0117 35.132 84.4845 36.488C85.9573 37.844 87.9362 38.5237 90.4137 38.5237C92.8911 38.5237 94.8853 37.844 96.3542 36.488C97.8194 35.132 98.5539 33.3481 98.5539 31.1433V14.7056C98.5539 12.4835 97.8194 10.6997 96.3542 9.35058ZM88.7848 13.2599C89.1654 12.8941 89.7096 12.7113 90.4137 12.7113C90.9426 12.7113 91.3803 12.8148 91.7304 13.0218L88.214 24.7601V14.7056C88.214 14.1087 88.4043 13.6256 88.7848 13.2599ZM92.0425 32.589C91.6619 32.9548 91.1177 33.1377 90.4137 33.1377C89.8847 33.1377 89.447 33.0341 89.1007 32.8271L92.6171 21.1717V31.1399C92.6171 31.7368 92.4268 32.2199 92.0463 32.5856L92.0425 32.589Z" fill="black"/>
<path d="M113.384 7.96362H119.458L113.343 37.8855H106.919L100.67 7.96362H106.744L110.115 27.8759L113.388 7.96362H113.384Z" fill="black"/>
<path d="M135.449 7.96362V13.3497H128.127V19.3327H135.449V24.7188H128.127V32.4994H139.635V37.8855H122.19V7.96362H135.449Z" fill="black"/>
</svg>
